<svg xmlns="http://www.w3.org/2000/svg" viewBox="0 0 512 512">
  <!-- Background -->
  <rect width="512" height="512" rx="100" fill="#2563eb" />
  
  <!-- HR Graphic (Group of Users) -->
  <path d="M256 128a64 64 0 100 128 64 64 0 000-128zm0 160c-61.8 0-160 31-160 96v64h320v-64c0-65-98.2-96-160-96z" fill="#ffffff" />
  <path d="M144 144a48 48 0 100 96 48 48 0 000-96zm0 128c-12 0-25.5 1.5-39 4.3C74.6 288.7 32 316.5 32 368v48h80v-48c0-34.6 30.6-60.4 69.3-73.4A175 175 0 01144 272z" fill="#93c5fd" />
  <path d="M368 144a48 48 0 100 96 48 48 0 000-96zm-37.3 150.6c38.8 13 69.3 38.8 69.3 73.4v48h80v-48c0-51.5-42.6-79.3-73-91.7-13.5-2.8-27-4.3-39-4.3a175 175 0 00-37.3 22.6z" fill="#93c5fd" />
</svg>
